<svg xmlns:i="&amp;ns_ai;" xmlns="http://www.w3.org/2000/svg" enable-background="new 0 0 512 512" viewBox="0 0 512 512"><g class="nc-icon-wrapper"><g id="g124" i:extraneous="self"><g id="g122"><g id="g22"><g id="g20"><g id="g18"><g id="g16"><g id="g14"><g id="g12"><g id="g10"><g id="g8"><g id="g6"><path id="path4" d="M504.079 256.006c0-137.022-111.07-248.082-248.076-248.082-137.012 0-248.082 111.06-248.082 248.082 0 137.001 111.07 248.07 248.082 248.07 137.006 0 248.076-111.069 248.076-248.07z" class="st9" style="" fill="#4ABC96"></path></g></g></g></g></g></g></g></g></g><g id="g30"><g id="g28"><g id="g26"><path id="path24" d="M255.666 341.321c-77.166 0-139.095 22.054-146.407 49.333-3.259 12.158-6.962 35.192-10.126 57.525 42.747 34.934 97.357 55.897 156.87 55.897 59.509 0 114.116-20.963 156.862-55.896-3.164-22.333-6.867-45.368-10.126-57.527-7.312-27.278-69.907-49.332-147.073-49.332z" class="st18" style="" fill="#1D1D1E"></path></g></g></g><g id="g54"><g id="g34"><path id="path32" d="M351 458.63h-76.5v44.752c26.923-1.985 52.65-8.261 76.5-18.159V458.63z" class="st48" style="" fill="#D6E7F2"></path></g><path id="rect36" class="st21" d="M274.5 457.766H351v6.223h-76.5z" style="" fill="#556877"></path><g id="g50"><g id="g40"><path id="path38" d="M343.336 473.766h-31.182a1.585 1.585 0 1 1 0-3.171h31.182a1.586 1.586 0 1 1 0 3.171z" class="st21" style="" fill="#556877"></path></g><g id="g44"><path id="path42" d="M343.336 485.657h-31.182a1.586 1.586 0 0 1 0-3.171h31.182a1.586 1.586 0 1 1 0 3.171z" class="st21" style="" fill="#556877"></path></g><g id="g48"><path id="path46" d="M312.154 494.377a1.585 1.585 0 0 0 0 3.171h.554a245.24 245.24 0 0 0 12.175-3.171h-12.729z" class="st21" style="" fill="#556877"></path></g></g><path id="rect52" class="st21" d="M280.445 469.009h23.387v29.728h-23.387z" style="" fill="#556877"></path></g><g id="g58"><path id="polygon56" class="st44" d="M218.088 343.333l37.62 28.073 38.204-28.073 1.861-13.166-40.023-5.25-39.523 5.25z" style="" fill="#D4D6D8"></path></g><path id="path60" d="M345 287.235s-23.397 23.457-89 23.457-89-23.457-89-23.457l6.209-115.239h165.582L345 287.235z" class="st4" style="" fill="#AF4B19"></path><g id="g108"><path id="path62" d="M294.89 290.039h-77.78c12.136 36.588.978 53.294.978 53.294L245 356.25h22l26.912-12.917s-11.158-16.706.978-53.294z" class="st11" style="" fill="#E5BA9C"></path><g id="g82"><g id="g80"><g id="g78"><g id="g76"><g id="g74"><g id="g72"><g id="g70"><g id="g68"><g id="g66"><path id="path64" d="M335.753 183.096c0-92.429-35.707-113.596-79.752-113.596-44.047 0-79.754 21.167-79.754 113.596 0 31.266 5.595 55.765 13.973 74.673 18.432 41.598 50.335 56.136 65.781 56.136s47.349-14.538 65.78-56.136c8.377-18.908 13.972-43.407 13.972-74.673z" class="st30" style="" fill="#F9C5A2"></path></g></g></g></g></g></g></g></g></g><path id="path84" d="M278.5 276s-10.074 5.25-22.5 5.25-22.5-5.25-22.5-5.25c0-1.36 7.141-9.591 11.939-10.313 2.994-.451 10.561 2.48 10.561 2.48s7.461-2.939 10.432-2.5C271.303 266.387 278.5 276 278.5 276z" class="st47" style="" fill="#D6876B"></path><path id="path86" d="M278.5 276s-10.074 9.125-22.5 9.125S233.5 276 233.5 276s2.325-2.807 15.475-3.617c2.217-.137 5.101 1.617 7.025 1.617 1.666 0 4.176-1.773 6.127-1.668C275.783 273.065 278.5 276 278.5 276z" class="st38" style="" fill="#CC785E"></path><g id="g92"><g id="g90"><path id="path88" d="M218.088 343.333s16.828 28.073 37.62 28.073 38.204-28.073 38.204-28.073l-38.162-18.417-37.662 18.417z" class="st11" style="" fill="#E5BA9C"></path></g></g><g id="g98"><path id="path94" d="M168.564 215.629c4.303 25.159 9.645 26.329 17.268 25.025l-8.146-54.771c-7.624 1.304-13.422 4.587-9.122 29.746z" class="st30" style="" fill="#F9C5A2"></path><path id="path96" d="M334.412 185.883l-8.146 54.771c7.625 1.304 12.967.134 17.268-25.025s-1.499-28.442-9.122-29.746z" class="st30" style="" fill="#F9C5A2"></path></g><path id="path100" d="M338.666 187c18.667-58-13.943-84.032-13.943-84.032C311.691 77.915 289.216 69.5 256 69.5c-57.333 0-96.667 26.167-82.666 117.5 0 0 122.666-26.5 122.666-60.147C296 160.5 338.666 187 338.666 187z" class="st4" style="" fill="#AF4B19"></path><g id="g106"><path id="path102" d="M182.667 191a37.396 37.396 0 0 1-.419-7.147c.103-2.851.486-4.687.486-4.687l-9.375 3.5a344.053 344.053 0 0 0-.025 4.333s1.012-.325 2.799-.944l-.256.088c1.288 2.19 2.903 5.552 4.457 10.522 0 .002 3.662 2.73 2.333-5.665z" class="st4" style="" fill="#AF4B19"></path><path id="path104" d="M329.791 183.875c.07 1.978.006 4.436-.42 7.126-1.328 8.394 2.334 5.667 2.334 5.667 1.55-4.96 3.154-8.322 4.432-10.516 1.619.557 2.529.849 2.529.849 0-1.466-.008-2.915-.025-4.347l-9.337-3.486c0-.001.385 1.844.487 4.707" class="st4" style="" fill="#AF4B19"></path></g></g><path id="path110" d="M256.293 451.333c19.46 0 41.539-108 41.539-108l-41.943 12.917-41.305-12.917s22.248 108 41.709 108z" class="st32" style="" fill="#C7C8C9"></path><path id="path112" d="M256.293 451.333l-.404-95.083L210 343.333s46.187 108 46.293 108z" class="st44" style="" fill="#D4D6D8"></path><path id="path114" d="M313.666 345.713l-17.893-15.547-39.794 26.083s34.03 10.426 34.198 10.259l23.489-20.795z" class="st27" style="" fill="#F3FAFF"></path><path id="path116" d="M198.333 345.713l17.894-15.547 39.753 26.083s-33.989 10.426-34.157 10.259l-23.49-20.795z" class="st27" style="" fill="#F3FAFF"></path><path id="path118" d="M204.5 340.292L192 346.73l8 55.27 16.334-3.667-12 14.667L256 466.416l-.021-15.083s-33.989-84.657-34.157-84.824L204.5 340.292z" class="st8" style="" fill="#4A4A54"></path><path id="path120" d="M307.5 340.292l12.5 6.438-8 55.27-16.333-3.667 12 14.667L256 466.416l.021-15.083s33.989-84.657 34.156-84.824l17.323-26.217z" class="st8" style="" fill="#4A4A54"></path></g></g></g></svg>