<svg xmlns:i="&amp;ns_ai;" xmlns="http://www.w3.org/2000/svg" enable-background="new 0 0 512 512" viewBox="0 0 512 512"><g class="nc-icon-wrapper"><g id="g178" i:extraneous="self"><g id="g176"><g id="g22"><g id="g20"><g id="g18"><g id="g16"><g id="g14"><g id="g12"><g id="g10"><g id="g8"><g id="g6"><path id="path4" d="M504.079 256.006c0-137.022-111.07-248.082-248.076-248.082-137.012 0-248.082 111.06-248.082 248.082 0 137.001 111.07 248.07 248.082 248.07 137.006 0 248.076-111.069 248.076-248.07z" class="st9" style="" fill="#4ABC96"></path></g></g></g></g></g></g></g></g></g><g id="g30"><g id="g28"><g id="g26"><path id="path24" d="M256.003 504.076c70.204 0 133.589-29.171 178.719-76.042-2.755-15.131-5.644-28.901-8.284-37.38-8.494-27.279-81.197-49.333-170.825-49.333S94.054 363.375 85.561 390.654c-2.64 8.479-5.529 22.247-8.283 37.377 45.129 46.873 108.517 76.045 178.725 76.045z" class="st18" style="" fill="#1D1D1E"></path></g></g></g><g id="g54"><g id="g34"><path id="path32" d="M351 458.63h-76.5v44.752c26.923-1.985 52.65-8.261 76.5-18.159V458.63z" class="st48" style="" fill="#D6E7F2"></path></g><path id="rect36" class="st21" d="M274.5 457.766H351v6.223h-76.5z" style="" fill="#556877"></path><g id="g50"><g id="g40"><path id="path38" d="M343.336 473.766h-31.182a1.585 1.585 0 1 1 0-3.171h31.182a1.586 1.586 0 1 1 0 3.171z" class="st21" style="" fill="#556877"></path></g><g id="g44"><path id="path42" d="M343.336 485.657h-31.182a1.586 1.586 0 0 1 0-3.171h31.182a1.586 1.586 0 1 1 0 3.171z" class="st21" style="" fill="#556877"></path></g><g id="g48"><path id="path46" d="M312.154 494.377a1.585 1.585 0 0 0 0 3.171h.554a245.24 245.24 0 0 0 12.175-3.171h-12.729z" class="st21" style="" fill="#556877"></path></g></g><path id="rect52" class="st21" d="M280.445 469.009h23.387v29.728h-23.387z" style="" fill="#556877"></path></g><path id="path56" d="M256.084 451.333c19.558 0 41.748-108 41.748-108l-42.154 26.74-41.512-26.74s22.359 108 41.918 108z" class="st44" style="" fill="#D4D6D8"></path><g id="g60"><path id="polygon58" class="st44" d="M218.088 343.333l37.62 28.073 38.204-28.073 1.861-13.166-40.023-5.25-39.523 5.25z" style="" fill="#D4D6D8"></path></g><path id="path62" d="M294.89 290.039h-77.78c12.136 36.588.978 53.294.978 53.294L245 349.396h22l26.912-6.062c0-.001-11.158-16.707.978-53.295z" class="st6" style="" fill="#E2A379"></path><g id="g66"><path id="polygon64" class="st27" d="M290 366.667l5.773-36.5 17.893 15.546z" style="" fill="#F3FAFF"></path></g><g id="g70"><path id="polygon68" class="st27" d="M222 366.667l-5.773-36.5-17.894 15.546z" style="" fill="#F3FAFF"></path></g><path id="path72" d="M313.666 345.713l-17.893-15.547-39.794 19.229s34.03 17.28 34.198 17.113l23.489-20.795z" class="st27" style="" fill="#F3FAFF"></path><path id="path74" d="M198.333 345.713l17.894-15.547 39.753 19.229s-33.989 17.28-34.157 17.113l-23.49-20.795z" class="st27" style="" fill="#F3FAFF"></path><path id="polygon76" class="st16" d="M255.969 349.396l-15.719 7.942 15.719 25.6 15.719-25.6z" style="" fill="#86B4D1"></path><g id="g80"><path id="path78" d="M256.076 451.333c5.087 0 10.371-11.511 15.318-27.895l-11.363-53.605h-8.141l-11.263 53.289c4.994 16.557 10.328 28.211 15.449 28.211z" class="st16" style="" fill="#86B4D1"></path></g><path id="path82" d="M204.5 340.292L192 346.73l8 55.27 16.334-3.667-12 14.667L256 466.416l-.021-15.083s-33.989-84.657-34.157-84.824L204.5 340.292z" class="st8" style="" fill="#4A4A54"></path><path id="path84" d="M307.5 340.292l12.5 6.438-8 55.27-16.333-3.667 12 14.667L256 466.416l.021-15.083s33.989-84.657 34.156-84.824l17.323-26.217z" class="st8" style="" fill="#4A4A54"></path><g id="g104"><g id="g102"><g id="g100"><g id="g98"><g id="g96"><g id="g94"><g id="g92"><g id="g90"><g id="g88"><path id="path86" d="M344.253 183.096c0-92.429-39.513-113.596-88.252-113.596-48.741 0-88.254 21.167-88.254 113.596 0 31.266 6.19 55.765 15.462 74.673 20.396 41.598 55.7 56.136 72.792 56.136s52.396-14.538 72.79-56.136c9.271-18.908 15.462-43.407 15.462-74.673z" class="st29" style="" fill="#F4B382"></path></g></g></g></g></g></g></g></g></g><g id="g110"><path id="path106" d="M281.999 273.157c0 2.296-11.64 8.578-25.999 8.578s-25.999-6.281-25.999-8.578c0-1.415 8.251-5.467 13.796-6.218 3.461-.469 12.203 2.579 12.203 2.579s8.621-3.056 12.055-2.599c5.628.748 13.944 6.238 13.944 6.238z" class="st49" style="" fill="#D89364"></path><path id="path108" d="M281.999 273.157c0 2.296-11.64 11.177-25.999 11.177s-25.999-8.88-25.999-11.177c0 0 10.591 1.146 25.999 1.146s25.999-1.146 25.999-1.146z" class="st40" style="" fill="#CE8757"></path></g><path id="path112" d="M178.334 246.56c-8.439 1.443-14.352.148-19.112-27.698s1.657-31.479 10.096-32.922l9.016 60.62z" class="st29" style="" fill="#F4B382"></path><g id="g132"><g id="g130"><g id="g128"><g id="g126"><g id="g124"><g id="g122"><g id="g120"><g id="g118"><g id="g116"><path id="path114" d="M344.253 186.167c11.414-22.762 8.423-43.121 2.747-56.5-9.333-22-21.117-28.587-21.117-28.587C318.332 76.332 284.443 68 256.001 68 207.26 68 161 93.738 167.747 186.167L188 182.75c0-2.629 97-58.75 97-58.75 9.667 5.667 25 2 25 2 0-3.804 14.099 56.75 14.099 56.75l20.154 3.417z" class="st20" style="" fill="#51250D"></path></g></g></g></g></g></g></g></g></g><g id="g152"><g id="g150"><g id="g148"><g id="g146"><g id="g144"><g id="g142"><g id="g140"><g id="g138"><g id="g136"><path id="path134" d="M173.375 148.688c-4.25 10.875-5.628 24.359-5.628 37.479 0 0 8.753-1.917 8.753 2.583l2.75 27.625 3.875-1.875c-.25-23 4.875-31.75 4.875-31.75l-14.625-34.062z" class="st20" style="" fill="#51250D"></path></g></g></g></g></g></g></g></g></g><path id="path154" d="M333.766 246.56c8.438 1.443 14.35.148 19.111-27.698 4.761-27.846-1.658-31.479-10.096-32.922l-9.015 60.62z" class="st29" style="" fill="#F4B382"></path><g id="g174"><g id="g172"><g id="g170"><g id="g168"><g id="g166"><g id="g164"><g id="g162"><g id="g160"><g id="g158"><path id="path156" d="M338.724 148.688c4.25 10.875 5.628 24.359 5.628 37.479 0 0-8.753-1.917-8.753 2.583l-2.75 27.625-3.875-1.875c.25-23-4.875-31.75-4.875-31.75l14.625-34.062z" class="st20" style="" fill="#51250D"></path></g></g></g></g></g></g></g></g></g></g></g></g></svg>